<svg class="main-svg" xmlns="http://www.w3.org/2000/svg" xmlns:xlink="http://www.w3.org/1999/xlink" width="1505" height="1053.5" style="" viewBox="0 0 1505 1053.5"><rect x="0" y="0" width="1505" height="1053.5" style="fill: rgb(255, 255, 255); fill-opacity: 1;"/><defs id="defs-88f86b"><g class="clips"><clipPath id="clip88f86bxyplot" class="plotclip"><rect width="1337" height="907"/></clipPath><clipPath class="axesclip" id="clip88f86bx"><rect x="88" y="0" width="1337" height="1053.5"/></clipPath><clipPath class="axesclip" id="clip88f86by"><rect x="0" y="60" width="1505" height="907"/></clipPath><clipPath class="axesclip" id="clip88f86bxy"><rect x="88" y="60" width="1337" height="907"/></clipPath></g><g class="gradients"/><g class="patterns"/></defs><g class="bglayer"/><g class="layer-below"><g class="imagelayer"/><g class="shapelayer"/></g><g class="cartesianlayer"><g class="subplot xy"><g class="layer-subplot"><g class="shapelayer"/><g class="imagelayer"/></g><g class="minor-gridlayer"><g class="x"/><g class="y"/></g><g class="gridlayer"><g class="x"><path class="xgrid crisp" transform="translate(136.06,0)" d="M0,60v907" style="stroke: rgb(255, 255, 255); stroke-opacity: 1; stroke-width: 1px;"/><path class="xgrid crisp" transform="translate(287.98,0)" d="M0,60v907" style="stroke: rgb(255, 255, 255); stroke-opacity: 1; stroke-width: 1px;"/><path class="xgrid crisp" transform="translate(439.89,0)" d="M0,60v907" style="stroke: rgb(255, 255, 255); stroke-opacity: 1; stroke-width: 1px;"/><path class="xgrid crisp" transform="translate(591.8,0)" d="M0,60v907" style="stroke: rgb(255, 255, 255); stroke-opacity: 1; stroke-width: 1px;"/><path class="xgrid crisp" transform="translate(743.71,0)" d="M0,60v907" style="stroke: rgb(255, 255, 255); stroke-opacity: 1; stroke-width: 1px;"/><path class="xgrid crisp" transform="translate(895.62,0)" d="M0,60v907" style="stroke: rgb(255, 255, 255); stroke-opacity: 1; stroke-width: 1px;"/><path class="xgrid crisp" transform="translate(1047.53,0)" d="M0,60v907" style="stroke: rgb(255, 255, 255); stroke-opacity: 1; stroke-width: 1px;"/><path class="xgrid crisp" transform="translate(1199.44,0)" d="M0,60v907" style="stroke: rgb(255, 255, 255); stroke-opacity: 1; stroke-width: 1px;"/><path class="xgrid crisp" transform="translate(1351.35,0)" d="M0,60v907" style="stroke: rgb(255, 255, 255); stroke-opacity: 1; stroke-width: 1px;"/></g><g class="y"><path class="ygrid crisp" transform="translate(0,840.42)" d="M88,0h1337" style="stroke: rgb(255, 255, 255); stroke-opacity: 1; stroke-width: 1px;"/><path class="ygrid crisp" transform="translate(0,747.68)" d="M88,0h1337" style="stroke: rgb(255, 255, 255); stroke-opacity: 1; stroke-width: 1px;"/><path class="ygrid crisp" transform="translate(0,654.93)" d="M88,0h1337" style="stroke: rgb(255, 255, 255); stroke-opacity: 1; stroke-width: 1px;"/><path class="ygrid crisp" transform="translate(0,562.19)" d="M88,0h1337" style="stroke: rgb(255, 255, 255); stroke-opacity: 1; stroke-width: 1px;"/><path class="ygrid crisp" transform="translate(0,469.44)" d="M88,0h1337" style="stroke: rgb(255, 255, 255); stroke-opacity: 1; stroke-width: 1px;"/><path class="ygrid crisp" transform="translate(0,376.7)" d="M88,0h1337" style="stroke: rgb(255, 255, 255); stroke-opacity: 1; stroke-width: 1px;"/><path class="ygrid crisp" transform="translate(0,283.95)" d="M88,0h1337" style="stroke: rgb(255, 255, 255); stroke-opacity: 1; stroke-width: 1px;"/><path class="ygrid crisp" transform="translate(0,191.21)" d="M88,0h1337" style="stroke: rgb(255, 255, 255); stroke-opacity: 1; stroke-width: 1px;"/><path class="ygrid crisp" transform="translate(0,98.46000000000001)" d="M88,0h1337" style="stroke: rgb(255, 255, 255); stroke-opacity: 1; stroke-width: 1px;"/></g></g><g class="zerolinelayer"><path class="yzl zl crisp" transform="translate(0,933.16)" d="M88,0h1337" style="stroke: rgb(255, 255, 255); stroke-opacity: 1; stroke-width: 2px;"/></g><path class="xlines-below"/><path class="ylines-below"/><g class="overlines-below"/><g class="xaxislayer-below"/><g class="yaxislayer-below"/><g class="overaxes-below"/><g class="plot" transform="translate(88,60)" clip-path="url(#clip88f86bxyplot)"><g class="scatterlayer mlayer"><g class="trace scatter tracea55e80" style="stroke-miterlimit: 2; opacity: 1;"><g class="fills"/><g class="errorbars"/><g class="lines"/><g class="points"><path class="point" transform="translate(659.28,617.37)" d="M11.25,0A11.25,11.25 0 1,1 0,-11.25A11.25,11.25 0 0,1 11.25,0Z" style="opacity: 1; stroke-width: 0px; fill: rgb(230, 57, 70); fill-opacity: 1;"/></g><g class="text"><g class="textpoint" transform="translate(0,-22.5625)"><text x="659.28" y="617.37" text-anchor="middle" style="font-family: 'Segoe UI'; font-size: 30px; fill: rgb(0, 0, 0); fill-opacity: 1; white-space: pre;">PRC</text></g></g></g><g class="trace scatter tracefce0ca" style="stroke-miterlimit: 2; opacity: 1;"><g class="fills"/><g class="errorbars"/><g class="lines"/><g class="points"><path class="point" transform="translate(445.46,59.41)" d="M11.25,0A11.25,11.25 0 1,1 0,-11.25A11.25,11.25 0 0,1 11.25,0Z" style="opacity: 1; stroke-width: 0px; fill: rgb(34, 139, 34); fill-opacity: 1;"/><path class="point" transform="translate(80.91,290.32)" d="M11.25,0A11.25,11.25 0 1,1 0,-11.25A11.25,11.25 0 0,1 11.25,0Z" style="opacity: 1; stroke-width: 0px; fill: rgb(34, 139, 34); fill-opacity: 1;"/><path class="point" transform="translate(120.37,262.54)" d="M11.25,0A11.25,11.25 0 1,1 0,-11.25A11.25,11.25 0 0,1 11.25,0Z" style="opacity: 1; stroke-width: 0px; fill: rgb(34, 139, 34); fill-opacity: 1;"/><path class="point" transform="translate(346.6,181.72)" d="M11.25,0A11.25,11.25 0 1,1 0,-11.25A11.25,11.25 0 0,1 11.25,0Z" style="opacity: 1; stroke-width: 0px; fill: rgb(34, 139, 34); fill-opacity: 1;"/></g><g class="text"><g class="textpoint" transform="translate(0,-22.5625)"><text x="445.46" y="59.41" text-anchor="middle" style="font-family: 'Segoe UI'; font-size: 30px; fill: rgb(0, 0, 0); fill-opacity: 1; white-space: pre;">USA</text></g><g class="textpoint" transform="translate(0,-22.5625)"><text x="80.91" y="290.32" text-anchor="middle" style="font-family: 'Segoe UI'; font-size: 30px; fill: rgb(0, 0, 0); fill-opacity: 1; white-space: pre;">AUS</text></g><g class="textpoint" transform="translate(0,-22.5625)"><text x="120.37" y="262.54" text-anchor="middle" style="font-family: 'Segoe UI'; font-size: 30px; fill: rgb(0, 0, 0); fill-opacity: 1; white-space: pre;">CDA</text></g><g class="textpoint" transform="translate(0,-22.5625)"><text x="346.6" y="181.72" text-anchor="middle" style="font-family: 'Segoe UI'; font-size: 30px; fill: rgb(0, 0, 0); fill-opacity: 1; white-space: pre;">NZ</text></g></g></g><g class="trace scatter traceb55cc2" style="stroke-miterlimit: 2; opacity: 1;"><g class="fills"/><g class="errorbars"/><g class="lines"/><g class="points"><path class="point" transform="translate(883.61,283.81)" d="M11.25,0A11.25,11.25 0 1,1 0,-11.25A11.25,11.25 0 0,1 11.25,0Z" style="opacity: 1; stroke-width: 0px; fill: rgb(30, 144, 255); fill-opacity: 1;"/><path class="point" transform="translate(849.43,517.73)" d="M11.25,0A11.25,11.25 0 1,1 0,-11.25A11.25,11.25 0 0,1 11.25,0Z" style="opacity: 1; stroke-width: 0px; fill: rgb(30, 144, 255); fill-opacity: 1;"/><path class="point" transform="translate(783.76,500.67)" d="M11.25,0A11.25,11.25 0 1,1 0,-11.25A11.25,11.25 0 0,1 11.25,0Z" style="opacity: 1; stroke-width: 0px; fill: rgb(30, 144, 255); fill-opacity: 1;"/></g><g class="text"><g class="textpoint" transform="translate(0,-22.5625)"><text x="883.61" y="283.81" text-anchor="middle" style="font-family: 'Segoe UI'; font-size: 30px; fill: rgb(0, 0, 0); fill-opacity: 1; white-space: pre;">CT</text></g><g class="textpoint" transform="translate(0,-22.5625)"><text x="849.43" y="517.73" text-anchor="middle" style="font-family: 'Segoe UI'; font-size: 30px; fill: rgb(0, 0, 0); fill-opacity: 1; white-space: pre;">ROK</text></g><g class="textpoint" transform="translate(0,-22.5625)"><text x="783.76" y="500.67" text-anchor="middle" style="font-family: 'Segoe UI'; font-size: 30px; fill: rgb(0, 0, 0); fill-opacity: 1; white-space: pre;">JPN</text></g></g></g><g class="trace scatter tracec1b608" style="stroke-miterlimit: 2; opacity: 1;"><g class="fills"/><g class="errorbars"/><g class="lines"/><g class="points"><path class="point" transform="translate(602.19,201.04)" d="M11.25,0A11.25,11.25 0 1,1 0,-11.25A11.25,11.25 0 0,1 11.25,0Z" style="opacity: 1; stroke-width: 0px; fill: rgb(0, 206, 209); fill-opacity: 1;"/><path class="point" transform="translate(647.27,279.46)" d="M11.25,0A11.25,11.25 0 1,1 0,-11.25A11.25,11.25 0 0,1 11.25,0Z" style="opacity: 1; stroke-width: 0px; fill: rgb(0, 206, 209); fill-opacity: 1;"/><path class="point" transform="translate(653.46,380.76)" d="M11.25,0A11.25,11.25 0 1,1 0,-11.25A11.25,11.25 0 0,1 11.25,0Z" style="opacity: 1; stroke-width: 0px; fill: rgb(0, 206, 209); fill-opacity: 1;"/><path class="point" transform="translate(770.35,217.83)" d="M11.25,0A11.25,11.25 0 1,1 0,-11.25A11.25,11.25 0 0,1 11.25,0Z" style="opacity: 1; stroke-width: 0px; fill: rgb(0, 206, 209); fill-opacity: 1;"/><path class="point" transform="translate(798.26,705.46)" d="M11.25,0A11.25,11.25 0 1,1 0,-11.25A11.25,11.25 0 0,1 11.25,0Z" style="opacity: 1; stroke-width: 0px; fill: rgb(0, 206, 209); fill-opacity: 1;"/></g><g class="text"><g class="textpoint" transform="translate(0,-22.5625)"><text x="602.19" y="201.04" text-anchor="middle" style="font-family: 'Segoe UI'; font-size: 30px; fill: rgb(0, 0, 0); fill-opacity: 1; white-space: pre;">MAS</text></g><g class="textpoint" transform="translate(0,-22.5625)"><text x="647.27" y="279.46" text-anchor="middle" style="font-family: 'Segoe UI'; font-size: 30px; fill: rgb(0, 0, 0); fill-opacity: 1; white-space: pre;">THA</text></g><g class="textpoint" transform="translate(0,-22.5625)"><text x="653.46" y="380.76" text-anchor="middle" style="font-family: 'Segoe UI'; font-size: 30px; fill: rgb(0, 0, 0); fill-opacity: 1; white-space: pre;">INA</text></g><g class="textpoint" transform="translate(0,-22.5625)"><text x="770.35" y="217.83" text-anchor="middle" style="font-family: 'Segoe UI'; font-size: 30px; fill: rgb(0, 0, 0); fill-opacity: 1; white-space: pre;">VN</text></g><g class="textpoint" transform="translate(0,-22.5625)"><text x="798.26" y="705.46" text-anchor="middle" style="font-family: 'Segoe UI'; font-size: 30px; fill: rgb(0, 0, 0); fill-opacity: 1; white-space: pre;">PHL</text></g></g></g><g class="trace scatter tracef526cc" style="stroke-miterlimit: 2; opacity: 1;"><g class="fills"/><g class="errorbars"/><g class="lines"/><g class="points"><path class="point" transform="translate(228.32,605.81)" d="M11.25,0A11.25,11.25 0 1,1 0,-11.25A11.25,11.25 0 0,1 11.25,0Z" style="opacity: 1; stroke-width: 0px; fill: rgb(255, 165, 0); fill-opacity: 1;"/><path class="point" transform="translate(392.07,569.94)" d="M11.25,0A11.25,11.25 0 1,1 0,-11.25A11.25,11.25 0 0,1 11.25,0Z" style="opacity: 1; stroke-width: 0px; fill: rgb(255, 165, 0); fill-opacity: 1;"/><path class="point" transform="translate(531.83,448.93)" d="M11.25,0A11.25,11.25 0 1,1 0,-11.25A11.25,11.25 0 0,1 11.25,0Z" style="opacity: 1; stroke-width: 0px; fill: rgb(255, 165, 0); fill-opacity: 1;"/><path class="point" transform="translate(390.53,756.22)" d="M11.25,0A11.25,11.25 0 1,1 0,-11.25A11.25,11.25 0 0,1 11.25,0Z" style="opacity: 1; stroke-width: 0px; fill: rgb(255, 165, 0); fill-opacity: 1;"/><path class="point" transform="translate(366.48,847.59)" d="M11.25,0A11.25,11.25 0 1,1 0,-11.25A11.25,11.25 0 0,1 11.25,0Z" style="opacity: 1; stroke-width: 0px; fill: rgb(255, 165, 0); fill-opacity: 1;"/></g><g class="text"><g class="textpoint" transform="translate(0,-22.5625)"><text x="228.32" y="605.81" text-anchor="middle" style="font-family: 'Segoe UI'; font-size: 30px; fill: rgb(0, 0, 0); fill-opacity: 1; white-space: pre;">RUS</text></g><g class="textpoint" transform="translate(0,-22.5625)"><text x="392.07" y="569.94" text-anchor="middle" style="font-family: 'Segoe UI'; font-size: 30px; fill: rgb(0, 0, 0); fill-opacity: 1; white-space: pre;">CHL</text></g><g class="textpoint" transform="translate(0,-22.5625)"><text x="531.83" y="448.93" text-anchor="middle" style="font-family: 'Segoe UI'; font-size: 30px; fill: rgb(0, 0, 0); fill-opacity: 1; white-space: pre;">MEX</text></g><g class="textpoint" transform="translate(0,-22.5625)"><text x="390.53" y="756.22" text-anchor="middle" style="font-family: 'Segoe UI'; font-size: 30px; fill: rgb(0, 0, 0); fill-opacity: 1; white-space: pre;">PE</text></g><g class="textpoint" transform="translate(0,-22.5625)"><text x="366.48" y="847.59" text-anchor="middle" style="font-family: 'Segoe UI'; font-size: 30px; fill: rgb(0, 0, 0); fill-opacity: 1; white-space: pre;">PNG</text></g></g></g><g class="trace scatter trace5d92cb" style="stroke-miterlimit: 2; opacity: 1;"><g class="fills"/><g class="errorbars"/><g class="lines"/><g class="points"><path class="point" transform="translate(1256.09,710.31)" d="M11.25,0A11.25,11.25 0 1,1 0,-11.25A11.25,11.25 0 0,1 11.25,0Z" style="opacity: 1; stroke-width: 0px; fill: rgb(186, 85, 211); fill-opacity: 1;"/><path class="point" transform="translate(572.32,298.23)" d="M11.25,0A11.25,11.25 0 1,1 0,-11.25A11.25,11.25 0 0,1 11.25,0Z" style="opacity: 1; stroke-width: 0px; fill: rgb(186, 85, 211); fill-opacity: 1;"/><path class="point" transform="translate(1243.88,790.81)" d="M11.25,0A11.25,11.25 0 1,1 0,-11.25A11.25,11.25 0 0,1 11.25,0Z" style="opacity: 1; stroke-width: 0px; fill: rgb(186, 85, 211); fill-opacity: 1;"/></g><g class="text"><g class="textpoint" transform="translate(0,-22.5625)"><text x="1256.09" y="710.31" text-anchor="middle" style="font-family: 'Segoe UI'; font-size: 30px; fill: rgb(0, 0, 0); fill-opacity: 1; white-space: pre;">SGP</text></g><g class="textpoint" transform="translate(0,-22.5625)"><text x="572.32" y="298.23" text-anchor="middle" style="font-family: 'Segoe UI'; font-size: 30px; fill: rgb(0, 0, 0); fill-opacity: 1; white-space: pre;">BD</text></g><g class="textpoint" transform="translate(0,-22.5625)"><text x="1243.88" y="790.81" text-anchor="middle" style="font-family: 'Segoe UI'; font-size: 30px; fill: rgb(0, 0, 0); fill-opacity: 1; white-space: pre;">HKC</text></g></g></g></g></g><g class="overplot"/><path class="xlines-above crisp" d="M0,0" style="fill: none;"/><path class="ylines-above crisp" d="M0,0" style="fill: none;"/><g class="overlines-above"/><g class="xaxislayer-above"><g class="xtick"><text text-anchor="middle" x="0" y="998" transform="translate(136.06,0)" style="font-family: 'Segoe UI'; font-size: 30px; fill: rgb(42, 63, 95); fill-opacity: 1; white-space: pre; opacity: 1;">1</text></g><g class="xtick"><text text-anchor="middle" x="0" y="998" style="font-family: 'Segoe UI'; font-size: 30px; fill: rgb(42, 63, 95); fill-opacity: 1; white-space: pre; opacity: 1;" transform="translate(287.98,0)">2</text></g><g class="xtick"><text text-anchor="middle" x="0" y="998" style="font-family: 'Segoe UI'; font-size: 30px; fill: rgb(42, 63, 95); fill-opacity: 1; white-space: pre; opacity: 1;" transform="translate(439.89,0)">3</text></g><g class="xtick"><text text-anchor="middle" x="0" y="998" style="font-family: 'Segoe UI'; font-size: 30px; fill: rgb(42, 63, 95); fill-opacity: 1; white-space: pre; opacity: 1;" transform="translate(591.8,0)">4</text></g><g class="xtick"><text text-anchor="middle" x="0" y="998" style="font-family: 'Segoe UI'; font-size: 30px; fill: rgb(42, 63, 95); fill-opacity: 1; white-space: pre; opacity: 1;" transform="translate(743.71,0)">5</text></g><g class="xtick"><text text-anchor="middle" x="0" y="998" style="font-family: 'Segoe UI'; font-size: 30px; fill: rgb(42, 63, 95); fill-opacity: 1; white-space: pre; opacity: 1;" transform="translate(895.62,0)">6</text></g><g class="xtick"><text text-anchor="middle" x="0" y="998" style="font-family: 'Segoe UI'; font-size: 30px; fill: rgb(42, 63, 95); fill-opacity: 1; white-space: pre; opacity: 1;" transform="translate(1047.53,0)">7</text></g><g class="xtick"><text text-anchor="middle" x="0" y="998" style="font-family: 'Segoe UI'; font-size: 30px; fill: rgb(42, 63, 95); fill-opacity: 1; white-space: pre; opacity: 1;" transform="translate(1199.44,0)">8</text></g><g class="xtick"><text text-anchor="middle" x="0" y="998" style="font-family: 'Segoe UI'; font-size: 30px; fill: rgb(42, 63, 95); fill-opacity: 1; white-space: pre; opacity: 1;" transform="translate(1351.35,0)">9</text></g></g><g class="yaxislayer-above"><g class="ytick"><text text-anchor="end" x="87" y="10.5" transform="translate(0,933.16)" style="font-family: 'Segoe UI'; font-size: 30px; fill: rgb(42, 63, 95); fill-opacity: 1; white-space: pre; opacity: 1;">0</text></g><g class="ytick"><text text-anchor="end" x="87" y="10.5" style="font-family: 'Segoe UI'; font-size: 30px; fill: rgb(42, 63, 95); fill-opacity: 1; white-space: pre; opacity: 1;" transform="translate(0,840.42)">0.1</text></g><g class="ytick"><text text-anchor="end" x="87" y="10.5" style="font-family: 'Segoe UI'; font-size: 30px; fill: rgb(42, 63, 95); fill-opacity: 1; white-space: pre; opacity: 1;" transform="translate(0,747.68)">0.2</text></g><g class="ytick"><text text-anchor="end" x="87" y="10.5" style="font-family: 'Segoe UI'; font-size: 30px; fill: rgb(42, 63, 95); fill-opacity: 1; white-space: pre; opacity: 1;" transform="translate(0,654.93)">0.3</text></g><g class="ytick"><text text-anchor="end" x="87" y="10.5" style="font-family: 'Segoe UI'; font-size: 30px; fill: rgb(42, 63, 95); fill-opacity: 1; white-space: pre; opacity: 1;" transform="translate(0,562.19)">0.4</text></g><g class="ytick"><text text-anchor="end" x="87" y="10.5" style="font-family: 'Segoe UI'; font-size: 30px; fill: rgb(42, 63, 95); fill-opacity: 1; white-space: pre; opacity: 1;" transform="translate(0,469.44)">0.5</text></g><g class="ytick"><text text-anchor="end" x="87" y="10.5" style="font-family: 'Segoe UI'; font-size: 30px; fill: rgb(42, 63, 95); fill-opacity: 1; white-space: pre; opacity: 1;" transform="translate(0,376.7)">0.6</text></g><g class="ytick"><text text-anchor="end" x="87" y="10.5" style="font-family: 'Segoe UI'; font-size: 30px; fill: rgb(42, 63, 95); fill-opacity: 1; white-space: pre; opacity: 1;" transform="translate(0,283.95)">0.7</text></g><g class="ytick"><text text-anchor="end" x="87" y="10.5" style="font-family: 'Segoe UI'; font-size: 30px; fill: rgb(42, 63, 95); fill-opacity: 1; white-space: pre; opacity: 1;" transform="translate(0,191.21)">0.8</text></g><g class="ytick"><text text-anchor="end" x="87" y="10.5" style="font-family: 'Segoe UI'; font-size: 30px; fill: rgb(42, 63, 95); fill-opacity: 1; white-space: pre; opacity: 1;" transform="translate(0,98.46000000000001)">0.9</text></g></g><g class="overaxes-above"/></g></g><g class="polarlayer"/><g class="smithlayer"/><g class="ternarylayer"/><g class="geolayer"/><g class="funnelarealayer"/><g class="pielayer"/><g class="iciclelayer"/><g class="treemaplayer"/><g class="sunburstlayer"/><g class="glimages"/><defs id="topdefs-88f86b"><g class="clips"/></defs><g class="layer-above"><g class="imagelayer"/><g class="shapelayer"/></g><g class="infolayer"><g class="g-gtitle"><text class="gtitle" x="75.25" y="30" text-anchor="start" dy="0em" style="font-family: 'Segoe UI'; font-size: 40px; fill: rgb(42, 63, 95); opacity: 1; font-weight: normal; white-space: pre;">Average vehicle ownership vs average population density</text></g><g class="g-xtitle"><text class="xtitle" x="756.5" y="1041.5" text-anchor="middle" style="font-family: 'Segoe UI'; font-size: 30px; fill: rgb(42, 63, 95); opacity: 1; font-weight: normal; white-space: pre;">Average population density (people per km^2 - log scale)</text></g><g class="g-ytitle" transform="translate(19.359375,0)"><text class="ytitle" transform="rotate(-90,12.640625,513.5)" x="12.640625" y="513.5" text-anchor="middle" style="font-family: 'Segoe UI'; font-size: 30px; fill: rgb(42, 63, 95); opacity: 1; font-weight: normal; white-space: pre;">Average vehicle ownership (vehicles per person)</text></g></g></svg>